<svg xmlns="http://www.w3.org/2000/svg" width="77.000" height="68.743" viewBox="0 0 77.000 68.743" fill="none">
  <path d="M 41.254 35.743 L 41.254 54.993 C 41.254 55.722 40.964 56.421 40.448 56.937 C 39.933 57.453 39.233 57.743 38.504 57.743 C 37.774 57.743 37.075 57.453 36.559 56.937 C 36.044 56.421 35.754 55.722 35.754 54.993 L 35.754 35.743 C 35.754 35.013 36.044 34.314 36.559 33.798 C 37.075 33.282 37.774 32.993 38.504 32.993 C 39.233 32.993 39.933 33.282 40.448 33.798 C 40.964 34.314 41.254 35.013 41.254 35.743 Z M 76.956 28.218 L 72.191 63.971 C 72.015 65.293 71.364 66.505 70.361 67.383 C 69.357 68.26 68.069 68.744 66.736 68.743 L 10.272 68.743 C 8.939 68.744 7.65 68.26 6.647 67.383 C 5.643 66.505 4.993 65.293 4.816 63.971 L 0.048 28.221 C -0.055 27.444 0.008 26.654 0.235 25.903 C 0.461 25.152 0.846 24.459 1.363 23.869 C 1.879 23.279 2.516 22.806 3.23 22.483 C 3.944 22.159 4.72 21.992 5.504 21.993 L 18.006 21.993 L 36.441 0.931 C 36.699 0.638 37.017 0.404 37.372 0.244 C 37.728 0.083 38.114 0 38.504 0 C 38.894 0 39.28 0.083 39.635 0.244 C 39.991 0.404 40.308 0.638 40.566 0.931 L 59.002 21.993 L 71.504 21.993 C 72.287 21.993 73.061 22.161 73.774 22.485 C 74.487 22.809 75.123 23.281 75.639 23.87 C 76.155 24.46 76.539 25.152 76.765 25.902 C 76.992 26.652 77.056 27.442 76.952 28.218 L 76.956 28.218 Z M 25.314 21.993 L 51.693 21.993 L 38.504 6.919 L 25.314 21.993 Z M 71.504 27.493 L 5.504 27.493 L 10.272 63.243 L 66.736 63.243 L 71.504 27.493 Z M 53.918 35.468 L 51.993 54.718 C 51.955 55.078 51.988 55.442 52.091 55.79 C 52.195 56.137 52.366 56.461 52.594 56.742 C 52.823 57.023 53.105 57.256 53.424 57.428 C 53.743 57.6 54.093 57.707 54.454 57.743 C 54.547 57.748 54.64 57.748 54.732 57.743 C 55.413 57.742 56.07 57.488 56.575 57.031 C 57.08 56.574 57.397 55.945 57.465 55.268 L 59.39 36.018 C 59.463 35.292 59.245 34.567 58.783 34.002 C 58.322 33.438 57.655 33.079 56.929 33.006 C 56.203 32.933 55.478 33.152 54.913 33.613 C 54.349 34.075 53.99 34.742 53.918 35.468 Z M 23.09 35.468 C 23.017 34.742 22.659 34.075 22.094 33.613 C 21.529 33.152 20.805 32.933 20.079 33.006 C 19.353 33.079 18.686 33.438 18.225 34.002 C 17.763 34.567 17.545 35.292 17.618 36.018 L 19.543 55.268 C 19.611 55.948 19.931 56.579 20.439 57.037 C 20.948 57.494 21.608 57.746 22.293 57.743 C 22.385 57.748 22.478 57.748 22.571 57.743 C 22.93 57.707 23.279 57.6 23.597 57.429 C 23.915 57.258 24.197 57.026 24.425 56.747 C 24.654 56.467 24.825 56.145 24.929 55.799 C 25.033 55.454 25.068 55.091 25.032 54.731 L 23.09 35.468 Z" fill="currentColor" fill-rule="nonzero"></path>
</svg>